<?xml version="1.0" encoding="utf-8"?>
<!-- Generator: Adobe Illustrator 24.0.0, SVG Export Plug-In . SVG Version: 6.00 Build 0)  -->
<svg version="1.1" xmlns="http://www.w3.org/2000/svg" xmlns:xlink="http://www.w3.org/1999/xlink" x="0px" y="0px"
	 viewBox="0 0 1000 1000" style="enable-background:new 0 0 1000 1000;" xml:space="preserve">
<style type="text/css">
	.st0{fill:#C6C6C6;}
	.st1{fill:#FFFFFF;}
</style>
<g id="Calque_1">
	<path class="st0" d="M998.21,499.11c0,131.65-50.97,251.39-134.26,340.57c-91.08,97.55-220.84,158.53-364.84,158.53
		c-143.29,0-272.47-60.38-363.48-157.08C51.52,751.8,0,631.47,0,499.11C0,223.46,223.46,0,499.11,0S998.21,223.46,998.21,499.11z"/>
</g>
<g id="Calque_2">
	<path class="st1" d="M827.25,754.96v0.01C751.11,852.5,632.43,915.2,499.11,915.2c-132.72,0-250.94-62.14-327.13-158.92
		c65.71-112.87,188-188.73,328.02-188.73C639.47,567.55,761.36,642.82,827.25,754.96z"/>
	<circle class="st1" cx="499.11" cy="322.41" r="185.63"/>
</g>
</svg>
